<svg xmlns="http://www.w3.org/2000/svg" viewBox="0 0 27.23 22.46"><defs><style>.cls-1{fill:#231f20;}</style></defs><g id="Layer_2" data-name="Layer 2"><g id="Layer_1-2" data-name="Layer 1"><path class="cls-1" d="M23.29,19.26c0,.4-5.7.39-8.61,1a69,69,0,0,0-6.9,2.1c-.38.21-.53.05-.72-.63a35.48,35.48,0,0,1-.49-3.64c0-.6.5-.88.79-.71s.38,2.95.77,4A30.39,30.39,0,0,1,20.24,19C20.68,19.07,23.3,19,23.29,19.26Z"/><path class="cls-1" d="M6.72,16.06c.22.05,0,.77-.17,1a4.47,4.47,0,0,1-3.39.5C1.87,17-.1,15,0,13.12S2.32,8,5.27,8c.64,0,1.18.14,1.21.33s-.49.25-.77.26a5.86,5.86,0,0,0-4.4,3.68c-.76,1.9,1.92,4.22,1.92,4.22a4.26,4.26,0,0,0,2.44.18C6.2,16.54,6.61,16.35,6.72,16.06Z"/><path class="cls-1" d="M7.68,8.32a1.24,1.24,0,0,0,1.4.13,10.05,10.05,0,0,0,2.68-2.31C12.78,4.9,16.44.59,18.08,1s2.43.68,4.76,3.14c.22.25.55.34.47-.22S20.57,0,18.07,0c-2.25,0-4.5,2.46-5.39,3.63A36.91,36.91,0,0,1,9.44,7.38,1.77,1.77,0,0,1,8,8C7.72,8,7.56,8.15,7.68,8.32Z"/><path class="cls-1" d="M24.26,5.94c.07-.21,1.11-.09,2,1.35a4.62,4.62,0,0,1,.76,3.85c-.33.91-1.78,3.13-3.54,3.32s-.86.07-1-.11.52-.4,1-.7S25.68,12.24,26,10.9A4.35,4.35,0,0,0,25,7C24.76,6.7,24.12,6.35,24.26,5.94Z"/><path class="cls-1" d="M20.65,13.84a11.33,11.33,0,0,0-2.45-.2,11.84,11.84,0,0,0-5.95,1.16,34,34,0,0,1-3.92,1.77c-.58.12-.65,0-.6-.1s.77-.36,1-.59-.52-1.18-.84-1.66-.38-.68-.28-.73,1.51,1.69,1.77,1.76a3.64,3.64,0,0,0,1.83-.75,13.13,13.13,0,0,1,4.86-1.61s.21-.1.31-.58.34-.76.25-1.18.08-.59-.51-.68-.83.06-.88-.13.91-.15,1-.11.27-.79.31-1.21-.2-.59-.12-.72.14-.42.54.26.05,1.06.18,1.74c0,.17.5.29.74.37,0,.09-.38.17-.47.37a4.35,4.35,0,0,0-.09,1.7c.13.29,1.44.23,1.76.14s.38-.36.45-.58.19-.76.25-.44a8.11,8.11,0,0,0,.18.91c.09.35.1.52.34.57a3,3,0,0,1,.95.52C21.45,14,21,13.9,20.65,13.84Z"/><path class="cls-1" d="M22.88,18.38c.43,0,.35-1.64.3-2.21s.07-1.35-.38-1.37-1.06.09-.81.45.52.06.51.4.11,2.22.13,2.49S22.73,18.37,22.88,18.38Z"/></g></g></svg>